<svg width="1" height="1" viewBox="0 0 1 1" fill="none" xmlns="http://www.w3.org/2000/svg">
<g clip-path="url(#clip0_1_11)">
<path d="M0.233245 0C0.238426 1.56293e-07 0.243199 0.00398585 0.245715 0.0104121L0.278377 0.093839C0.280893 0.100265 0.285667 0.104251 0.290847 0.104251H0.713432C0.718613 0.104251 0.723386 0.100265 0.725902 0.093839L0.758565 0.0104121C0.761081 0.00398583 0.765854 1.33969e-07 0.771034 0H0.985735C0.993613 1.78018e-08 1 0.00906307 1 0.0202429V0.979757C1 0.990937 0.993613 1 0.985735 1H0.0142653C0.00638682 1 0 0.990937 0 0.979757V0.0202429C5.51468e-09 0.00906307 0.00638681 0 0.0142653 0H0.233245Z" fill="#D9D9D9"/>
</g>
<defs>
<clipPath id="clip0_1_11">
<rect width="1" height="1" fill="white"/>
</clipPath>
</defs>
</svg>
